<svg width="450" height="454" viewBox="0 0 450 454" fill="none" xmlns="http://www.w3.org/2000/svg">
<path d="M433.953 252.152C433.746 253.817 433.566 255.164 433.801 256.58C433.953 257.524 434.257 258.357 434.671 259.079C435.058 259.8 435.556 260.411 436.136 260.925C437.297 261.938 438.747 262.563 440.143 262.785C441.635 263.035 443.141 262.896 444.495 262.285C445.849 261.674 447.037 260.592 447.756 258.94C448.391 257.468 448.599 255.802 448.778 254.359C449.4 250.153 449.649 245.905 449.967 241.671L423.991 239.964L423.742 243.323L434.727 244.239L434.423 248.209L433.953 252.152ZM446.733 245.225L446.374 249.708L445.808 254.164C445.642 255.511 445.421 256.941 444.315 258.079C443.127 259.273 441.718 259.231 440.847 259.092C439.576 258.898 438.347 258.315 437.587 257.246C436.578 255.816 436.758 254.373 437.034 252.249L437.518 248.376L437.808 244.489L446.733 245.225Z" fill="black"/>
<path d="M442.589 286.384L427.543 282.261C425.954 281.789 424.918 281.498 423.909 280.901C422.652 280.137 421.823 279.082 421.422 277.847C420.994 276.597 420.925 275.154 421.284 273.654C421.519 272.627 422.14 270.42 424.379 269.268C426.313 268.254 428.303 268.643 430.638 269.171L445.988 272.336L446.693 268.421L430.817 265.45C427.957 264.909 426.037 264.534 423.564 265.839C421.823 266.769 420.634 268.088 419.833 269.407C419.045 270.725 418.672 272.044 418.451 272.988C418.106 274.473 418.051 275.82 418.134 277.014C418.189 278.208 418.451 279.277 418.852 280.207C419.653 282.081 420.994 283.441 422.403 284.246C423.453 284.871 424.545 285.19 425.567 285.537L441.525 290.215L442.589 286.384Z" fill="black"/>
<path d="M414.996 287.843L413.366 292.673C412.841 294.284 412.302 295.894 411.639 297.463C410.271 301.058 409.622 302.724 410.091 305.153C410.602 308.401 413.048 309.72 414.195 310.22C418.837 312.302 421.573 309.054 422.181 308.151C422.001 310.331 422.775 313.052 425.69 314.343C427.542 315.162 429.269 314.967 430.747 314.246C432.198 313.51 433.345 312.219 434.133 310.942C434.74 309.887 435.127 308.915 435.749 307.319L436.854 304.487L437.822 301.613L439.756 295.852L414.996 287.843ZM432.64 306.86C432.074 308.318 430.54 312.024 427.1 310.581C426.381 310.289 425.677 309.762 425.221 309.012C424.06 307.138 424.779 305.306 426.326 301.349C427.017 299.531 427.583 297.671 428.219 295.825L435.694 298.365L434.257 302.64C433.773 304.084 433.179 305.458 432.64 306.86ZM423.19 301.266C421.905 304.431 421.559 305.222 420.744 306.069C420.495 306.305 418.713 308.11 415.936 306.93C414.071 306.139 412.882 304.737 413.214 302.446C413.311 301.683 413.545 301.086 414.195 299.323C415.204 296.907 416.005 294.422 416.834 291.952L425.428 294.881C424.682 297.004 424.06 299.184 423.19 301.266Z" fill="black"/>
<path d="M427.046 327.376C427.626 326.196 428.275 325.058 428.786 323.85L405.256 312.592C402.88 317.395 400.503 322.212 397.754 326.821L400.434 328.376C401.484 326.516 402.59 324.683 403.585 322.795L406.5 317.076L427.046 327.376Z" fill="black"/>
<path d="M417.317 344.951L395.141 331.264L393.248 334.22L415.175 348.297L417.317 344.951Z" fill="black"/>
<path d="M384.946 362.261C383.122 360.151 382.486 358.013 382.528 355.973C382.569 353.918 383.357 352.03 384.559 350.489C385.484 349.282 386.576 348.421 387.681 347.782C388.773 347.144 389.975 346.783 391.232 346.7C393.733 346.519 396.483 347.407 399.122 349.268C401.291 350.809 403.211 352.821 403.819 355.528C404.165 356.93 404.123 358.416 403.764 359.859C403.405 361.303 402.645 362.65 401.705 363.885C399.426 366.772 396.731 367.897 394.645 367.939C393.097 368.036 392.268 367.689 391.301 367.342L389.367 370.729C390.251 371.034 392.255 371.77 394.88 371.437C396.192 371.27 397.685 370.854 399.218 369.938C400.724 369.007 402.299 367.619 403.875 365.606C404.662 364.607 405.312 363.607 405.837 362.622C406.362 361.636 406.707 360.623 406.97 359.651C407.481 357.708 407.536 355.861 407.218 354.14C406.569 350.711 404.4 347.866 401.346 345.797C398.362 343.77 394.894 342.743 391.591 343.035C389.933 343.187 388.331 343.673 386.825 344.562C386.079 345.006 385.346 345.547 384.655 346.186C383.923 346.811 383.232 347.532 382.569 348.379C378.037 354.348 379.073 360.762 382.03 364.968L384.946 362.261Z" fill="black"/>
<path d="M357.6 393.357L360.308 391.219L362.919 388.942L368.128 384.389L373.13 379.6C373.959 378.795 374.802 378.017 375.617 377.198L377.993 374.686L380.163 376.796L377.745 379.336C376.929 380.169 376.059 380.96 375.23 381.779L370.159 386.638L364.881 391.247L362.228 393.551L359.479 395.73L357.6 393.357Z" fill="black"/>
<path d="M335.579 406.503C334.183 407.433 332.981 408.071 332.014 409.112C329.389 411.861 329.762 415.498 331.144 417.983C332.608 420.634 335.344 422.355 338.867 421.55C340.415 421.148 341.893 420.37 343.095 419.551L348.442 416.109L351.109 414.387L353.693 412.555L338.84 391.08C337.928 391.719 337.043 392.413 336.09 393.01L342.225 402.199L335.579 406.503ZM348.94 412.236L341.409 417.094C340.29 417.858 338.978 418.482 337.403 418.316C335.703 418.094 334.874 416.955 334.432 416.192C333.783 415.068 333.492 413.749 333.865 412.499C334.349 410.834 335.648 410.167 337.416 408.973L343.952 404.767L348.94 412.236Z" fill="black"/>
<path d="M314.299 434.613L308.136 420.218C307.515 418.677 307.1 417.691 306.92 416.497C306.533 413.541 308.122 411.195 310.941 409.917C311.411 409.695 312.198 409.404 313.124 409.237C314.05 409.071 315.128 409.071 316.261 409.57C318.236 410.417 319.176 412.236 320.226 414.401L327.328 428.436L330.851 426.617L323.279 412.291C321.912 409.709 321.014 407.96 318.43 406.794C314.727 405.087 311.494 406.544 309.711 407.266C306.962 408.515 305.276 410.251 304.337 412.097C303.397 413.957 303.148 415.776 303.397 417.386C303.563 418.593 303.991 419.662 304.364 420.662L310.665 436.112C311.881 435.654 313.11 435.182 314.299 434.613Z" fill="black"/>
<path d="M295.949 413.818C295.161 414.123 294.374 414.457 293.586 414.748L291.182 415.567L286.374 417.205C284.578 417.871 283.224 418.232 282.132 418.718C281.041 419.204 280.212 419.787 279.41 420.717C277.227 423.23 277.725 425.978 278.042 427.186C279.313 432.128 283.514 432.128 284.619 432.128C282.782 433.266 281.179 435.682 281.994 438.763C283.03 442.706 286.913 443.594 289.911 443.275C291.127 443.108 292.135 442.859 293.738 442.289L299.472 440.346L302.346 439.374C303.299 439.041 304.225 438.639 305.165 438.278L295.949 413.818ZM292.163 439.582C290.685 440.096 286.802 441.068 285.794 437.486C285.573 436.737 285.545 435.862 285.835 435.043C286.567 432.961 288.488 432.531 292.481 431.115L297.994 429.241L300.674 436.695L292.163 439.582ZM290.602 428.616C287.383 429.713 286.512 429.81 285.351 429.713C285.006 429.657 282.478 429.338 281.676 426.409C281.123 424.451 281.483 422.647 283.486 421.536C284.149 421.134 284.785 421.036 286.526 420.384L293.918 417.871L296.999 426.437L290.602 428.616Z" fill="black"/>
<path d="M272.699 447.94L276.512 447.051L270.612 421.55C265.431 422.869 260.139 423.702 254.875 424.604L255.331 427.686C257.445 427.395 259.531 426.95 261.631 426.589C263.718 426.187 265.832 425.909 267.904 425.368L272.699 447.94Z" fill="black"/>
<path d="M252.952 451.216L249.788 425.257L246.32 425.701L249.028 451.701L252.952 451.216Z" fill="black"/>
<path d="M219.309 436.598C219.807 433.849 221.092 431.961 222.694 430.768C223.496 430.171 224.394 429.754 225.333 429.477C226.273 429.157 227.254 429.005 228.221 428.977C231.247 428.894 233.623 429.976 235.337 431.892C237.036 433.766 238.059 436.418 238.266 439.666C238.432 442.317 238.045 445.121 236.318 447.301C234.563 449.536 231.579 450.716 228.497 450.799C224.822 450.952 222.28 449.3 220.94 447.731C219.903 446.593 219.655 445.732 219.309 444.76L215.468 445.399C215.772 446.273 216.463 448.3 218.356 450.133C219.309 451.049 220.567 451.923 222.225 452.576C223.054 452.909 223.979 453.173 225.029 453.381C226.066 453.561 227.226 453.603 228.497 453.575C233.568 453.436 237.243 451.826 239.496 449.064C241.761 446.371 242.618 442.859 242.328 439.18C242.038 435.557 240.684 432.225 238.39 429.865C236.097 427.575 232.863 425.992 228.594 426.103C224.836 426.284 221.921 427.367 219.71 429.255C217.513 431.115 216.035 433.613 215.344 436.084L219.309 436.598Z" fill="black"/>
<path d="M178.048 434.557C182.511 435.696 187.07 436.376 191.588 437.223C193.854 437.653 196.148 437.847 198.428 438.166L201.854 438.597L203.568 438.819L205.295 438.958L205.018 441.984L203.277 441.845L201.536 441.623L198.068 441.179C195.761 440.846 193.426 440.651 191.132 440.221C186.545 439.374 181.917 438.68 177.398 437.514L178.048 434.557Z" fill="black"/>
<path d="M154.085 425.452C152.496 424.938 151.252 424.369 149.843 424.272C146.071 423.925 143.473 426.479 142.382 429.116C141.221 431.921 141.594 435.127 144.413 437.404C145.684 438.362 147.231 439.028 148.599 439.5L154.61 441.541C156.613 442.221 158.617 442.929 160.661 443.47L168.123 418.414C167.045 418.108 165.967 417.831 164.917 417.442L161.587 427.992L154.085 425.452ZM157.953 439.514L149.47 436.626C148.185 436.182 146.872 435.585 146.029 434.225C145.145 432.753 145.504 431.393 145.836 430.56C146.306 429.352 147.149 428.297 148.351 427.812C149.967 427.145 151.28 427.77 153.311 428.422L160.661 430.921L157.953 439.514Z" fill="black"/>
<path d="M118.951 426.229L126.315 412.416C127.13 410.973 127.642 410.015 128.443 409.14C130.502 406.989 133.334 406.78 136.07 408.196C136.54 408.432 137.258 408.849 137.963 409.487C138.667 410.098 139.344 410.959 139.648 412.167C140.215 414.249 139.386 416.109 138.35 418.288L131.842 432.614L135.448 434.252L141.887 419.371C143.047 416.692 143.849 414.901 143.144 412.139C142.177 408.169 139.013 406.517 137.341 405.573C134.647 404.185 132.256 403.949 130.225 404.351C128.208 404.754 126.619 405.698 125.514 406.905C124.671 407.794 124.118 408.793 123.566 409.709L115.455 424.285C116.643 424.952 117.762 425.646 118.951 426.229Z" fill="black"/>
<path d="M123.716 398.854C122.224 398.035 120.814 397.105 119.391 396.188L115.122 393.44C111.902 391.358 110.507 390.233 108.047 390.15C104.718 389.997 102.894 392.107 102.148 393.121C99.0942 397.202 101.719 400.492 102.424 401.352C100.393 400.63 97.5053 400.88 95.6124 403.435C93.1944 406.697 94.9215 410.306 97.0355 412.458C97.9198 413.291 98.735 413.957 100.186 414.873L105.284 418.163C106.984 419.26 108.669 420.37 110.438 421.356L123.716 398.854ZM101.291 411.93C100.006 411.042 96.8006 408.654 98.9698 405.614C99.412 404.975 100.075 404.406 100.904 404.129C102.991 403.379 104.51 404.656 108.103 406.905L113.008 410.056L108.863 416.803L101.291 411.93ZM108.863 403.865C107.426 402.949 106.569 402.324 105.989 401.797C105.395 401.283 105.063 400.908 104.745 400.408C104.579 400.103 103.253 397.924 105.022 395.466C106.21 393.815 107.826 392.968 109.954 393.856C110.673 394.134 111.17 394.536 112.745 395.536L119.322 399.77L114.569 407.53L108.863 403.865Z" fill="black"/>
<path d="M82.6523 401.853L85.7197 404.282L101.885 383.737L98.7352 381.252L95.6955 378.615C93.692 376.824 91.5919 375.158 89.6989 373.256L87.585 375.533C89.091 377.046 90.7352 378.407 92.338 379.823C93.9545 381.211 95.5297 382.654 97.1877 384.001L82.6523 401.853Z" fill="black"/>
<path d="M67.7854 388.401L85.9821 369.716C85.1393 368.911 84.2827 368.12 83.4951 367.245L64.9668 385.611C65.8649 386.583 66.8321 387.485 67.7854 388.401Z" fill="black"/>
<path d="M58.1275 352.892C63.0601 350.268 67.2328 352.059 69.6369 355.14C73.5609 359.721 72.3726 365.288 67.6196 369.675C65.6438 371.465 63.2673 372.881 60.5178 372.867C57.6715 372.895 54.839 371.34 52.8494 368.967C50.5696 366.065 50.1551 363.136 50.542 361.096C50.7631 359.583 51.2743 358.847 51.8131 357.986C50.8045 357.153 49.9202 356.209 48.9669 355.335C48.4695 356.126 47.295 357.945 47.0325 360.61C46.8114 363.22 47.5437 366.69 50.694 370.716C53.9824 374.603 57.6439 376.379 61.0704 376.532C64.5937 376.615 67.8683 375.088 70.5488 372.548C73.1878 370.063 74.9287 366.926 75.3156 363.664C75.7716 360.332 74.9287 356.876 72.1239 353.641C69.8027 350.67 66.9979 349.171 64.1378 348.63C61.3053 348.075 58.5281 348.422 56.1793 349.407C56.8148 350.546 57.4228 351.753 58.1275 352.892Z" fill="black"/>
<path d="M33.9914 319.201L37.1278 325.378L38.7168 328.46L40.4301 331.472L43.8843 337.469L47.6148 343.313L45.0863 344.965L41.3005 339.051L37.8049 332.957L36.064 329.917L34.4612 326.78L31.2695 320.519L33.9914 319.201Z" fill="black"/>
<path d="M26.2301 294.672C25.6913 293.075 25.2629 291.798 24.4339 290.618C22.32 287.453 18.8105 286.967 16.0609 287.772C13.1732 288.605 10.8244 290.924 10.8105 294.561C10.8796 296.157 11.4185 297.739 11.8744 299.128C12.5653 301.14 13.2009 303.167 13.947 305.152L16.2682 311.08L40.4062 301.321L39.1765 298.197L28.883 302.154C27.8881 299.711 27.0729 297.184 26.2301 294.672ZM17.6913 306.471C16.5445 303.708 15.6326 300.849 14.6654 298.003C14.2371 296.712 13.8088 295.324 14.3062 293.839C14.8451 292.242 16.1715 291.673 17.0143 291.409C18.244 291.021 19.5842 291.035 20.7448 291.673C22.2785 292.52 22.7345 293.894 23.4253 295.935C24.2405 298.406 25.0557 300.863 26.0505 303.264L17.6913 306.471Z" fill="black"/>
<path d="M3.72209 267.547L19.0588 264.729C20.703 264.465 21.7531 264.27 22.9275 264.368C24.3921 264.506 25.5941 265.103 26.4922 266.047C27.3627 266.991 28.0259 268.268 28.3851 269.781C28.62 270.809 29.0345 273.071 27.5147 275.07C26.2159 276.833 24.2539 277.333 21.9189 277.874L6.72034 281.692C6.99668 282.983 7.36973 284.26 7.72897 285.537L23.3282 281.331C26.1468 280.581 28.0397 280.082 29.6977 277.833C32.1709 274.598 31.6874 271.045 31.2452 269.171C30.4991 266.228 29.3799 264.159 27.8048 262.827C26.2712 261.48 24.4612 260.842 22.8446 260.731C21.6287 260.62 20.4957 260.814 19.4318 260.939L3.03125 263.646L3.72209 267.547Z" fill="black"/>
<path d="M27.9863 254.233C27.5995 250.86 27.033 247.501 26.8534 244.1C26.5356 240.268 26.356 238.478 24.9328 236.493C23.0676 233.786 20.2904 233.661 19.033 233.702C13.9761 233.855 12.8569 237.964 12.7049 239.061C11.9174 237.02 10.0935 234.896 6.88804 235.007C2.8259 235.146 0.974442 238.755 0.739556 241.754C0.642838 242.975 0.725739 244.016 0.85009 245.724C1.07116 249.777 1.6791 253.789 2.17651 257.801L27.9863 254.233ZM3.87598 244.766C3.75162 243.211 3.53056 239.199 7.24728 239.005C8.02103 238.963 8.87767 239.116 9.62378 239.588C11.489 240.768 11.641 242.739 11.9588 246.973C12.0555 248.917 12.3871 250.846 12.6082 252.776L4.77407 253.734L4.2214 249.25L3.87598 244.766ZM14.8189 245.696C14.5978 242.295 14.5702 241.421 14.9294 240.31C15.0538 239.991 15.869 237.589 18.8949 237.45C20.9259 237.353 22.5978 238.103 23.2886 240.31C23.5235 241.046 23.5788 241.684 23.7584 243.558L24.0485 247.473L24.546 251.36L15.5374 252.457C15.2334 250.194 14.9433 247.959 14.8189 245.696Z" fill="black"/>
<path d="M0.0602391 223.861C0.0464223 225.165 -0.0364786 226.47 0.0187887 227.789L26.0773 227.664C26.0497 224.971 26.1878 222.292 26.2293 219.599C26.2846 218.252 26.2569 216.906 26.3675 215.573L26.6714 211.547L23.5765 211.311C23.4521 213.449 23.1758 215.573 23.162 217.725L22.9962 224.152L0.0602391 223.861Z" fill="black"/>
<path d="M1.16602 203.802L27.0588 206.411L27.4871 202.927L1.6496 199.859L1.16602 203.802Z" fill="black"/>
<path d="M22.7734 174.053C27.8856 176.288 29.1153 180.689 28.2448 184.492C27.5678 187.463 26.1585 189.573 23.934 190.822C21.7371 192.072 18.877 192.488 15.6992 191.961C13.074 191.53 10.4902 190.545 8.77696 188.379C6.99459 186.172 6.33138 182.951 7.03604 179.925C7.86505 176.33 9.86849 174.164 11.6785 173.193C12.9911 172.429 13.8754 172.36 14.884 172.249L15.2018 168.362C14.276 168.459 12.1483 168.681 9.89612 170.125C7.67161 171.568 5.48856 174.317 4.32794 179.314C3.27787 184.298 4.27268 188.31 6.28993 191.1C8.29337 193.89 11.637 195.528 15.257 196.056C18.8632 196.569 22.276 195.959 25.1775 194.251C28.0652 192.53 30.1378 189.684 30.9806 185.492C31.8234 181.813 31.2293 178.676 29.8614 176.094C28.5903 173.54 26.5316 171.555 24.3071 170.333L22.7734 174.053Z" fill="black"/>
<path d="M33.9935 134.102L31.1334 140.418L29.7241 143.583L28.4529 146.804L25.9106 153.259L23.6999 159.825L20.8398 158.881L23.0782 152.218L25.6481 145.666L26.9331 142.404L28.3838 139.197L31.2716 132.784L33.9935 134.102Z" fill="black"/>
<path d="M48.2654 112.725C49.1635 111.309 49.8958 110.171 50.2965 108.782C51.4848 105.173 49.6333 102.091 47.3121 100.439C44.8527 98.6904 41.6195 98.3017 38.7595 100.537C37.5574 101.592 36.6593 102.994 35.8717 104.229C34.7388 106.02 33.5781 107.797 32.459 109.601L29.2949 115.126L51.9269 128.036L53.5987 125.121L44.1066 119.499C45.3777 117.167 46.8561 114.974 48.2654 112.725ZM33.7578 113.363C35.1947 110.74 36.8804 108.255 38.4693 105.728C39.2016 104.59 40.003 103.382 41.4952 102.855C43.0841 102.3 44.3691 102.98 45.0876 103.48C46.1653 104.215 46.9667 105.256 47.1877 106.547C47.4779 108.283 46.7041 109.504 45.5573 111.309C44.1618 113.502 42.7249 115.668 41.4814 117.944L33.7578 113.363Z" fill="black"/>
<path d="M55.3257 78.1454L67.0838 88.4317C68.3135 89.5561 69.1149 90.2641 69.7781 91.2497C71.4223 93.7484 70.8834 96.4831 68.9629 98.8985C68.3135 99.7175 66.8213 101.467 64.3204 101.536C62.1512 101.619 60.5346 100.384 58.6555 98.8985L46.2066 89.334C45.3914 90.3752 44.5762 91.4024 43.8301 92.4991L56.8317 102.119C59.1806 103.868 60.7281 105.034 63.5329 104.937C67.6088 104.882 70.0406 102.258 71.2289 100.745C75.0837 96.0944 74.4067 91.5829 72.5553 88.862C71.8782 87.8348 71.0354 87.0713 70.2617 86.3217L57.9094 75.1331L55.3257 78.1454Z" fill="black"/>
<path d="M80.831 88.8896L84.3267 85.1971L88.0019 81.6711C89.3698 80.3246 90.3923 79.3529 91.1245 78.3951C91.8983 77.4789 92.4095 76.6182 92.7411 75.4383C93.653 72.2455 92.0088 69.9966 91.1936 69.0388C87.9052 65.138 84.0918 66.9426 83.0831 67.4146C84.2576 65.61 84.6721 62.7504 82.6134 60.3349C79.9882 57.2532 76.0504 58.0722 73.4942 59.6825C72.4994 60.3766 71.7395 61.0984 70.5098 62.2784L66.1299 66.4707L61.9434 70.8573L80.831 88.8896ZM73.135 64.0414C73.7015 63.5 74.7101 62.556 75.8984 62.084C77.1004 61.6259 78.4959 61.7092 79.7256 63.0974C80.2369 63.6804 80.6514 64.4439 80.7343 65.3046C80.9277 67.4424 79.546 68.8583 76.4787 71.7735C75.0832 73.12 73.6462 74.4388 72.3336 75.8825L66.6964 70.3298L68.2577 68.7056L69.888 67.1509L73.135 64.0414ZM79.2559 73.2172C81.7429 70.885 82.3923 70.3159 83.47 69.8994C83.8016 69.8023 86.2334 69.011 88.2368 71.2876C89.5909 72.8285 90.0054 74.5637 88.6928 76.4516C88.2783 77.1041 87.8223 77.5483 86.4959 78.867L83.6635 81.574L82.2541 82.9205L80.9139 84.3364L74.4476 77.9508C75.9536 76.2989 77.6393 74.7997 79.2559 73.2172Z" fill="black"/>
<path d="M87.0224 47.9945L83.9551 50.4238L100.314 70.8021C102.428 69.1502 104.501 67.4566 106.642 65.8464L113.178 61.1821L111.437 58.614C107.996 61.1266 104.432 63.4865 101.129 66.2073L87.0224 47.9945Z" fill="black"/>
<path d="M103.354 36.4031L117.46 58.3779L120.403 56.4761L106.683 34.2515L103.354 36.4031Z" fill="black"/>
<path d="M139.983 34.8483C140.715 37.5414 140.384 39.8041 139.458 41.5809C138.988 42.4694 138.366 43.2329 137.648 43.8992C136.943 44.5933 136.128 45.1624 135.257 45.6066C132.563 46.9948 129.952 47.0365 127.603 46.0925C125.282 45.1902 123.195 43.219 121.606 40.3871C120.308 38.055 119.451 35.3897 120.045 32.655C120.639 29.837 122.822 27.5049 125.572 26.0751C128.819 24.3398 131.817 24.7008 133.71 25.5337C135.133 26.1028 135.741 26.7691 136.46 27.491L139.637 25.2283C138.988 24.5758 137.496 23.0488 134.995 22.2298C133.738 21.8134 132.232 21.5913 130.449 21.7162C129.565 21.7856 128.598 21.9383 127.575 22.2159C126.567 22.5213 125.503 22.9656 124.37 23.5486C122.118 24.7147 120.335 26.0751 119.009 27.5465C117.682 29.018 116.867 30.7393 116.425 32.419C115.555 35.82 116.287 39.346 118.152 42.5527C119.976 45.6899 122.657 48.1053 125.738 49.2298C127.285 49.8128 128.916 50.0071 130.67 49.8961C132.439 49.7989 134.276 49.3131 136.169 48.3275C139.472 46.5367 141.627 44.274 142.788 41.6087C143.962 38.9712 144.211 36.0699 143.769 33.5573L139.983 34.8483Z" fill="black"/>
<path d="M178.046 18.7592C169.038 20.6888 160.264 23.5346 151.587 26.6164L150.537 23.7706C159.338 20.6472 168.236 17.7597 177.369 15.8024L178.046 18.7592Z" fill="black"/>
<path d="M203.566 16.5384C205.224 16.3857 206.578 16.3024 207.904 15.7888C211.455 14.4423 212.685 10.9997 212.533 8.15392C212.367 5.12773 210.654 2.39305 207.13 1.58791C205.569 1.26863 203.897 1.39357 202.446 1.50462C198.246 2.04601 194.046 2.51798 189.873 3.15654L193.935 28.9903C195.027 28.7681 196.146 28.671 197.251 28.5183L195.718 17.5518L203.566 16.5384ZM194.032 5.58582L202.916 4.47529C204.27 4.36424 205.707 4.29483 207.047 5.15549C208.471 6.08556 208.733 7.47372 208.802 8.36215C208.899 9.65314 208.595 10.9719 207.724 11.9297C206.564 13.2207 205.113 13.2901 202.985 13.5122L195.289 14.4978L194.032 5.58582Z" fill="black"/>
<path d="M234.874 0.546443L234.225 16.2049C234.114 17.8707 234.073 18.9396 233.713 20.0779C232.788 22.9097 230.328 24.3257 227.247 24.2424C226.722 24.2424 225.893 24.1591 224.981 23.8953C224.069 23.6455 223.102 23.1735 222.301 22.2295C220.878 20.6054 220.836 18.5648 220.822 16.1494L220.491 0.421509L216.539 0.51868L217.161 16.7324C217.271 19.6614 217.327 21.6187 219.15 23.7982C221.748 26.9493 225.299 27.0465 227.219 27.1714C233.244 27.338 236.339 23.812 237.292 20.7997C237.665 19.6337 237.734 18.4954 237.831 17.4265L238.812 0.754668L236.836 0.60197L234.874 0.546443Z" fill="black"/>
<path d="M242.447 27.2841C245.832 27.4507 249.176 28.006 252.534 28.4085C256.347 28.7972 258.088 29.2415 260.326 28.2558C263.38 26.9648 264.112 24.2718 264.333 23.0363C265.314 18.0249 261.528 16.1787 260.534 15.6928C262.675 15.4707 265.162 13.9992 265.756 10.8758C266.516 6.87784 263.407 4.35135 260.561 3.32409C259.401 2.90764 258.364 2.81047 256.679 2.58836C252.672 2.11638 248.679 1.46393 244.658 1.24182L242.447 27.2841ZM256.955 5.71177C258.516 5.85059 262.426 6.65573 261.791 10.3483C261.666 11.1118 261.321 11.9169 260.699 12.5277C259.926 13.2912 259.055 13.5828 257.853 13.5966C256.651 13.6661 255.103 13.4717 253.003 13.208L247.228 12.4722L248.029 4.58734L256.955 5.71177ZM253.639 16.262C257.01 16.7201 257.853 16.8728 258.848 17.5252C259.138 17.7334 261.266 19.1216 260.741 22.1201C260.395 24.1329 259.304 25.5905 257.01 25.7016C256.25 25.7294 255.615 25.6599 253.763 25.4656L246.012 24.48L246.924 15.4152L253.639 16.262Z" fill="black"/>
<path d="M278.109 6.62719L274.296 5.73877L268.645 31.3087C271.242 31.9473 273.867 32.447 276.437 33.1827L284.147 35.376L285.059 32.4054L278.91 30.6563L275.843 29.7817L272.734 29.0599L278.109 6.62719Z" fill="black"/>
<path d="M297.326 12.2347L289.008 37.0135L292.324 38.1379L301.084 13.5119L297.326 12.2347Z" fill="black"/>
<path d="M321.339 40.0674C319.695 42.3163 317.733 43.4684 315.757 43.8433C314.776 44.0237 313.781 44.0237 312.828 43.8571C311.847 43.7322 310.894 43.4546 310.009 43.052C307.246 41.8026 305.574 39.7898 304.87 37.3188C304.123 34.9312 304.358 32.0577 305.588 29.0592C306.597 26.5883 308.13 24.2561 310.631 23.0207C313.187 21.7574 316.379 22.0073 319.198 23.2844C322.569 24.7559 324.144 27.3518 324.683 29.3507C325.125 30.8222 324.987 31.7106 324.862 32.7379L328.607 33.8345C328.717 32.9044 328.966 30.7944 328.054 28.3235C327.598 27.088 326.838 25.7553 325.622 24.4366C325.014 23.7841 324.296 23.1317 323.439 22.4931C322.583 21.8685 321.56 21.3271 320.4 20.7996C318.092 19.7446 315.923 19.2032 313.933 19.0782C311.958 18.9255 310.106 19.3836 308.531 20.0777C305.339 21.5075 303.046 24.2978 301.719 27.7543C300.421 31.1415 300.199 34.7507 301.236 37.8741C301.747 39.4566 302.617 40.8448 303.778 42.1774C304.952 43.4962 306.472 44.6345 308.42 45.5229C311.875 47.0083 314.97 47.2998 317.774 46.5502C320.565 45.8283 322.97 44.2181 324.669 42.3024L321.339 40.0674Z" fill="black"/>
<path d="M357.592 59.9459L352.162 55.6703L346.539 51.6447C345.599 50.9784 344.674 50.2982 343.72 49.6457L340.819 47.7717C338.884 46.5362 336.95 45.2591 335.002 44.0514L336.563 41.4556C338.553 42.691 340.501 43.982 342.463 45.2314L345.406 47.1332C346.373 47.7856 347.313 48.4797 348.266 49.1599L353.972 53.2411L359.485 57.586L357.592 59.9459Z" fill="black"/>
<path d="M375.228 78.6309C376.375 79.8525 377.315 80.8381 378.558 81.5461C380.202 82.5039 381.888 82.6844 383.436 82.3929C384.942 82.1291 386.323 81.3656 387.387 80.4078C388.506 79.3944 389.349 78.1173 389.722 76.6736C390.068 75.2577 389.93 73.6752 389.128 72.0649C388.396 70.6489 387.235 69.4274 386.24 68.3723C384.803 66.8037 383.256 65.36 381.736 63.8885L377.149 59.488L359.602 78.7975L362.02 81.1158L369.591 73.0644L372.451 75.8129C373.391 76.7291 374.33 77.6453 375.228 78.6309ZM377.798 64.2911C379.94 66.3873 382.178 68.3723 384.182 70.5795C385.121 71.5651 386.088 72.634 386.268 74.2165C386.448 75.9101 385.522 76.979 384.886 77.5898C383.947 78.4782 382.717 79.0613 381.418 78.978C379.691 78.8669 378.683 77.8119 377.218 76.271C375.449 74.3692 373.501 72.6479 371.65 70.8433L377.798 64.2911Z" fill="black"/>
<path d="M407.228 93.2062L394.641 102.451C393.273 103.409 392.416 104.034 391.311 104.464C389.929 104.992 388.616 104.95 387.373 104.52C386.116 104.09 384.969 103.229 384.015 102.007C383.366 101.188 382.04 99.3003 382.551 96.8294C382.938 94.6916 384.471 93.4006 386.351 91.8736L398.385 81.7955L395.801 78.797L383.587 89.4026C381.376 91.3183 379.884 92.5816 379.359 95.3579C378.627 99.2726 380.547 102.313 381.736 103.812C382.675 105.006 383.656 105.908 384.665 106.574C385.66 107.255 386.627 107.727 387.608 108.004C389.556 108.546 391.463 108.337 392.955 107.74C394.088 107.31 395.027 106.644 395.926 106.061L409.521 96.4407L407.228 93.2062Z" fill="black"/>
<path d="M391.17 115.806L393.906 120.095C394.818 121.525 395.757 122.941 396.572 124.44C398.507 127.758 399.405 129.313 401.588 130.451C404.448 132.061 406.99 130.965 408.096 130.382C412.614 128.022 411.771 123.857 411.453 122.816C413.042 124.315 415.653 125.398 418.458 123.913C420.254 122.955 421.18 121.484 421.526 119.873C421.843 118.291 421.553 116.583 421.056 115.167C420.614 114.029 420.102 113.113 419.246 111.628C418.735 110.753 418.251 109.865 417.726 109.004L416.096 106.45L412.821 101.327L391.17 115.806ZM416.966 113.793C417.74 115.154 419.674 118.666 416.399 120.47C415.722 120.845 414.88 121.081 414.009 120.97C411.826 120.72 410.845 119.013 408.731 115.32C407.709 113.668 406.645 112.03 405.609 110.392L412.241 106.103C413.871 108.643 415.515 111.156 416.966 113.793ZM406.714 117.736C408.372 120.706 408.773 121.484 408.925 122.65C408.952 122.997 409.242 125.509 406.59 126.967C404.807 127.939 402.97 128.008 401.408 126.314C400.869 125.759 400.565 125.204 399.598 123.594C398.355 121.289 396.89 119.138 395.495 116.917L403.121 111.989C404.324 113.918 405.622 115.764 406.714 117.736Z" fill="black"/>
<path d="M429.459 130.965C428.906 129.771 428.408 128.563 427.787 127.411L404.367 138.905C406.633 143.764 408.913 148.636 410.778 153.661L413.666 152.523C412.865 150.538 412.16 148.525 411.276 146.568L408.637 140.723L429.459 130.965Z" fill="black"/>
<path d="M437.1 149.553L412.631 158.465L413.75 161.796L438.372 153.328L437.1 149.553Z" fill="black"/>
<path d="M430.399 185.77C424.927 185.964 421.846 182.535 420.99 178.731C420.368 175.747 420.727 173.234 422.178 171.138C423.601 169.056 426.005 167.446 429.1 166.529C431.642 165.78 434.42 165.544 436.907 166.738C439.49 167.945 441.466 170.569 442.102 173.609C442.931 177.204 442.06 180.022 440.858 181.688C440.002 182.952 439.186 183.396 438.316 183.937L439.711 187.574C441.245 186.616 447.2 183.007 444.796 172.984C444.506 171.749 444.16 170.597 443.705 169.583C443.221 168.57 442.682 167.654 442.088 166.849C440.9 165.225 439.504 164.031 437.97 163.212C434.917 161.574 431.325 161.518 427.787 162.629C424.361 163.711 421.418 165.794 419.58 168.57C418.668 169.958 418.033 171.541 417.784 173.262C417.522 174.997 417.687 176.885 418.116 178.981C418.931 182.66 420.934 185.214 423.173 186.963C425.425 188.712 428.147 189.601 430.675 189.74L430.399 185.77Z" fill="black"/>
<path d="M437.556 226.651C437.377 217.406 437.031 208.147 435.719 198.999L438.717 198.61C440.043 207.897 440.403 217.281 440.582 226.651H437.556Z" fill="black"/>
</svg>
