<svg width="66" height="11" viewBox="0 0 66 11" fill="none" xmlns="http://www.w3.org/2000/svg">
<path d="M1.78626 6.19983V10.5336H0.464844V0.300415H4.88686C5.39655 0.300415 5.97703 0.300415 6.51032 0.474898C7.71375 0.894601 8.26591 2.01224 8.26591 3.20061C8.26591 4.31824 7.74206 5.6198 6.37817 6.0395C5.86849 6.19983 5.36352 6.19983 4.74056 6.19983H1.78626ZM1.78626 4.99731H4.64146C5.42487 4.99731 5.96287 4.99731 6.42537 4.53517C6.7746 4.1862 6.91618 3.68162 6.91618 3.17231C6.91618 2.82335 6.85955 2.2716 6.37817 1.86605C5.92984 1.48879 5.42015 1.47464 4.9435 1.47464H1.78626V4.99731Z" fill="black"/>
<path d="M17.597 0.286088V6.82213C17.5829 7.24184 17.5829 7.68983 17.4649 8.15669C17.177 9.38751 16.0302 10.7787 13.6375 10.7787C12.8824 10.7787 11.4619 10.6608 10.4897 9.4158C9.80539 8.5481 9.82427 7.77943 9.82427 6.6335V0.286088H11.2023V6.44487C11.1882 7.38802 11.1882 8.18499 11.7262 8.83576C12.335 9.59029 13.2364 9.63273 13.6422 9.63273C14.8456 9.63273 15.7895 9.05269 16.0916 7.93505C16.2095 7.48706 16.2095 7.06735 16.2237 6.41186V0.281372H17.597V0.286088Z" fill="black"/>
<path d="M20.4375 0.300415H24.6566C25.2512 0.300415 25.6146 0.300415 26.0346 0.371151C27.0635 0.573929 28.2952 1.32845 28.2952 2.92238C28.2952 4.16734 27.4976 4.90771 26.7284 5.13879C27.1201 5.25668 28.6161 5.70468 28.6161 7.70416C28.6161 8.1946 28.5453 9.28394 27.4552 9.99602C26.6576 10.5195 25.945 10.5195 24.4395 10.5336H20.4375V0.300415ZM21.7306 1.50293V4.60591H23.8637C25.4164 4.60591 26.1385 4.60591 26.6057 3.91269C26.7944 3.63917 26.8652 3.30436 26.8652 2.99783C26.8652 1.53594 25.4589 1.50293 24.9067 1.50293H21.7306ZM21.7306 5.76598V9.3311H24.7604C25.4872 9.31695 25.7326 9.31695 26.0205 9.24622C26.8888 9.04344 27.2098 8.40681 27.2098 7.60985C27.2098 6.42147 26.3414 6.03007 26.2234 5.97348C25.8175 5.79899 25.4966 5.78485 24.2366 5.7707H21.7306V5.76598Z" fill="black"/>
<path d="M32.2584 9.31682H37.2184V10.5335H30.8945V0.286133H32.2584V9.31682Z" fill="black"/>
<path d="M39.8155 0.300415V10.5336H38.4375V0.300415H39.8155Z" fill="black"/>
<path d="M51.8549 6.82228C51.4208 8.76517 49.7831 10.793 46.8052 10.793C43.4262 10.793 41.8027 8.25587 41.8027 5.41698C41.8027 2.51679 43.4687 0.0410156 46.994 0.0410156C50.5335 0.0410156 51.4019 2.4885 51.652 3.17228L50.274 3.45994C50.1418 3.08268 50.0427 2.74786 49.6652 2.31401C49.1743 1.70568 48.273 1.12564 46.9799 1.12564C45.8944 1.12564 44.8326 1.55949 44.1671 2.41304C43.5159 3.22415 43.3129 4.29935 43.3129 5.34153C43.3129 7.87861 44.606 9.66117 46.9704 9.66117C48.4948 9.66117 50.0427 8.80762 50.3636 6.6478L51.8549 6.82228Z" fill="black"/>
<path d="M65.3376 4.21924H55.125V5.40761H65.3376V4.21924Z" fill="black"/>
</svg>
